# xmcd
#
# Track frame offsets:
#	182
#	21512
#	46677
#	68055
#	84775
#	105307
#	127400
#	143927
#	158162
#	176810
#	193797
#	211822
#	230117
#	245422
#	272435
#
# Disc length: 3987 seconds
#
# Revision: 1
# Processed by: cddbd v1.5.2PL0 Copyright (c) Steve Scherf et al.
# Submitted via: audiograbber 1.83.01
#
DISCID=d10f910f
DTITLE=Diane Tell - Ses Plus Belles Chansons
DYEAR=1900
DGENRE=Jazz
TTITLE0=Si J'Etais Un Homme
TTITLE1=Je Suis En Amour
TTITLE2=La Falaise
TTITLE3=Souvent, Longtemps, Enormement
TTITLE4=On A Beau
TTITLE5=Gilberto
TTITLE6=Tes Yeux
TTITLE7=Les Trottoirs Du Boulevard Saint-Laurent
TTITLE8=Paradis D'Espace
TTITLE9=Savoir
TTITLE10=Descends
TTITLE11=On A Besoin D'Amour
TTITLE12=Manhattan Monotone
TTITLE13=Faire A Nouveau Connaissance
TTITLE14=J'Arrive Pas J'Arrive
EXTD=
EXTT0=
EXTT1=
EXTT2=
EXTT3=
EXTT4=
EXTT5=
EXTT6=
EXTT7=
EXTT8=
EXTT9=
EXTT10=
EXTT11=
EXTT12=
EXTT13=
EXTT14=
PLAYORDER=
